# xmcd
#
# Track frame offsets: 
#        150
#        35049
#        66416
#        103668
#        121759
#        151998
#        184559
#        215434
#        243976
#
# Disc length: 3903 seconds
#
# Revision: 0
# Processed by: cddbd v1.5.1PL0 Copyright (c) Steve Scherf et al.
# Submitted via: ExactAudioCopy v0.95a5
#
DISCID=780f3d09
DTITLE=Jessie Payo - Live At Harvelle's
DYEAR=2004
DGENRE=Blues
TTITLE0=Walkin' Blues
TTITLE1=Lil Ways Down the Road
TTITLE2=Stringbean
TTITLE3=Party, Party
TTITLE4=Angel Of Mercy
TTITLE5=Who Is He, and What Is He To You
TTITLE6=Summertime
TTITLE7=Helluva Man
TTITLE8=Git Back
EXTD=
EXTT0=
EXTT1=
EXTT2=
EXTT3=
EXTT4=
EXTT5=
EXTT6=
EXTT7=
EXTT8=
PLAYORDER=
